<svg width="1000" height="650" viewBox="0 0 1000 650" fill="none" xmlns="http://www.w3.org/2000/svg">
  <rect width="1000" height="650" rx="20" fill="#1e1e2e"/>
  <circle cx="500" cy="530" r="100" fill="#61afef" fill-opacity="0.05"/>
  <text x="500" y="45" font-family="Arial, sans-serif" font-size="28" fill="#61afef" text-anchor="middle" font-weight="bold">THE SYNDICATE DECISION LOOP</text>
  <text x="500" y="70" font-family="Arial, sans-serif" font-size="14" fill="#abb2bf" text-anchor="middle">Multi-Vendor Orchestration &amp; Deterministic Compliance</text>
  <path d="M150 85 L850 85" stroke="#44475a" stroke-width="1" stroke-dasharray="5 5"/>
  <rect x="400" y="110" width="200" height="50" rx="25" fill="#61afef" fill-opacity="0.1" stroke="#61afef" stroke-width="2"/>
  <text x="500" y="140" font-family="Arial, sans-serif" font-size="16" fill="#61afef" text-anchor="middle" font-weight="bold">USER PROMPT</text>
  <path d="M500 160 L500 195" stroke="#abb2bf" stroke-width="2"/>
  <path d="M495 195 L500 200 L505 195" stroke="#abb2bf" stroke-width="2"/>
  <rect x="350" y="200" width="300" height="60" rx="10" fill="#e06c75" fill-opacity="0.1" stroke="#e06c75" stroke-width="2"/>
  <text x="500" y="225" font-family="Arial, sans-serif" font-size="14" fill="#e06c75" text-anchor="middle" font-weight="bold">DETERMINISTIC FORCE-FIELD</text>
  <text x="500" y="245" font-family="Arial, sans-serif" font-size="11" fill="#abb2bf" text-anchor="middle">Bash Hooks • Fail-Closed Enforcement</text>
  <path d="M500 260 L500 295" stroke="#abb2bf" stroke-width="2"/>
  <path d="M495 295 L500 300 L505 295" stroke="#abb2bf" stroke-width="2"/>
  <rect x="420" y="300" width="160" height="40" rx="5" fill="#44475a" stroke="#abb2bf" stroke-width="1"/>
  <text x="500" y="325" font-family="Arial, sans-serif" font-size="14" fill="#ffffff" text-anchor="middle">TASK ROUTER</text>
  <path d="M420 320 L250 380" stroke="#abb2bf" stroke-width="2" stroke-dasharray="4 4"/>
  <path d="M500 340 L500 380" stroke="#abb2bf" stroke-width="2" stroke-dasharray="4 4"/>
  <path d="M580 320 L750 380" stroke="#abb2bf" stroke-width="2" stroke-dasharray="4 4"/>
  <rect x="150" y="380" width="200" height="100" rx="12" fill="#e06c75" fill-opacity="0.08" stroke="#e06c75" stroke-width="2"/>
  <text x="250" y="415" font-family="Arial, sans-serif" font-size="18" fill="#e06c75" text-anchor="middle" font-weight="bold">CLAUDE</text>
  <text x="250" y="440" font-family="Arial, sans-serif" font-size="11" fill="#abb2bf" text-anchor="middle">Lead Architect</text>
  <rect x="400" y="380" width="200" height="100" rx="12" fill="#98c379" fill-opacity="0.08" stroke="#98c379" stroke-width="2"/>
  <text x="500" y="415" font-family="Arial, sans-serif" font-size="18" fill="#98c379" text-anchor="middle" font-weight="bold">GEMINI</text>
  <text x="500" y="440" font-family="Arial, sans-serif" font-size="11" fill="#abb2bf" text-anchor="middle">Investigator</text>
  <rect x="650" y="380" width="200" height="100" rx="12" fill="#d19a66" fill-opacity="0.08" stroke="#d19a66" stroke-width="2"/>
  <text x="750" y="415" font-family="Arial, sans-serif" font-size="18" fill="#d19a66" text-anchor="middle" font-weight="bold">CODEX</text>
  <text x="750" y="440" font-family="Arial, sans-serif" font-size="11" fill="#abb2bf" text-anchor="middle">Sprint Dev</text>
  <path d="M250 480 L395 530" stroke="#e06c75" stroke-width="2"/>
  <path d="M500 480 L500 525" stroke="#98c379" stroke-width="2"/>
  <path d="M750 480 L605 530" stroke="#d19a66" stroke-width="2"/>
  <rect x="300" y="530" width="400" height="80" rx="15" fill="#61afef" fill-opacity="0.1" stroke="#61afef" stroke-width="3"/>
  <text x="500" y="565" font-family="Arial, sans-serif" font-size="20" fill="#61afef" text-anchor="middle" font-weight="bold">OMNI-GPS (.bestai/GPS.json)</text>
  <text x="500" y="590" font-family="Arial, sans-serif" font-size="12" fill="#abb2bf" text-anchor="middle">Unified Project State • Locked Sync • Multi-Vendor Brain</text>
</svg>